<svg class="rich-terminal" viewBox="0 0 994 733.1999999999999" xmlns="http://www.w3.org/2000/svg">
    <!-- Generated with Rich https://www.textualize.io -->
    <style>

    @font-face {
        font-family: "Fira Code";
        src: local("FiraCode-Regular"),
                url("https://cdnjs.cloudflare.com/ajax/libs/firacode/6.2.0/woff2/FiraCode-Regular.woff2") format("woff2"),
                url("https://cdnjs.cloudflare.com/ajax/libs/firacode/6.2.0/woff/FiraCode-Regular.woff") format("woff");
        font-style: normal;
        font-weight: 400;
    }
    @font-face {
        font-family: "Fira Code";
        src: local("FiraCode-Bold"),
                url("https://cdnjs.cloudflare.com/ajax/libs/firacode/6.2.0/woff2/FiraCode-Bold.woff2") format("woff2"),
                url("https://cdnjs.cloudflare.com/ajax/libs/firacode/6.2.0/woff/FiraCode-Bold.woff") format("woff");
        font-style: bold;
        font-weight: 700;
    }

    .terminal-3268662892-matrix {
        font-family: Fira Code, monospace;
        font-size: 20px;
        line-height: 24.4px;
        font-variant-east-asian: full-width;
    }

    .terminal-3268662892-title {
        font-size: 18px;
        font-weight: bold;
        font-family: arial;
    }

    .terminal-3268662892-r1 { fill: #c5c8c6 }
.terminal-3268662892-r2 { fill: #94a3b8;font-weight: bold }
.terminal-3268662892-r3 { fill: #94a3b8 }
.terminal-3268662892-r4 { fill: #ffff00 }
.terminal-3268662892-r5 { fill: #ffff00;font-weight: bold }
.terminal-3268662892-r6 { fill: #999999 }
.terminal-3268662892-r7 { fill: #e0e0e0 }
.terminal-3268662892-r8 { fill: #475569 }
.terminal-3268662892-r9 { fill: #ffffff;font-weight: bold }
.terminal-3268662892-r10 { fill: #64748b }
    </style>

    <defs>
    <clipPath id="terminal-3268662892-clip-terminal">
      <rect x="0" y="0" width="975.0" height="682.1999999999999" />
    </clipPath>
    <clipPath id="terminal-3268662892-line-0">
    <rect x="0" y="1.5" width="976" height="24.65"/>
            </clipPath>
<clipPath id="terminal-3268662892-line-1">
    <rect x="0" y="25.9" width="976" height="24.65"/>
            </clipPath>
<clipPath id="terminal-3268662892-line-2">
    <rect x="0" y="50.3" width="976" height="24.65"/>
            </clipPath>
<clipPath id="terminal-3268662892-line-3">
    <rect x="0" y="74.7" width="976" height="24.65"/>
            </clipPath>
<clipPath id="terminal-3268662892-line-4">
    <rect x="0" y="99.1" width="976" height="24.65"/>
            </clipPath>
<clipPath id="terminal-3268662892-line-5">
    <rect x="0" y="123.5" width="976" height="24.65"/>
            </clipPath>
<clipPath id="terminal-3268662892-line-6">
    <rect x="0" y="147.9" width="976" height="24.65"/>
            </clipPath>
<clipPath id="terminal-3268662892-line-7">
    <rect x="0" y="172.3" width="976" height="24.65"/>
            </clipPath>
<clipPath id="terminal-3268662892-line-8">
    <rect x="0" y="196.7" width="976" height="24.65"/>
            </clipPath>
<clipPath id="terminal-3268662892-line-9">
    <rect x="0" y="221.1" width="976" height="24.65"/>
            </clipPath>
<clipPath id="terminal-3268662892-line-10">
    <rect x="0" y="245.5" width="976" height="24.65"/>
            </clipPath>
<clipPath id="terminal-3268662892-line-11">
    <rect x="0" y="269.9" width="976" height="24.65"/>
            </clipPath>
<clipPath id="terminal-3268662892-line-12">
    <rect x="0" y="294.3" width="976" height="24.65"/>
            </clipPath>
<clipPath id="terminal-3268662892-line-13">
    <rect x="0" y="318.7" width="976" height="24.65"/>
            </clipPath>
<clipPath id="terminal-3268662892-line-14">
    <rect x="0" y="343.1" width="976" height="24.65"/>
            </clipPath>
<clipPath id="terminal-3268662892-line-15">
    <rect x="0" y="367.5" width="976" height="24.65"/>
            </clipPath>
<clipPath id="terminal-3268662892-line-16">
    <rect x="0" y="391.9" width="976" height="24.65"/>
            </clipPath>
<clipPath id="terminal-3268662892-line-17">
    <rect x="0" y="416.3" width="976" height="24.65"/>
            </clipPath>
<clipPath id="terminal-3268662892-line-18">
    <rect x="0" y="440.7" width="976" height="24.65"/>
            </clipPath>
<clipPath id="terminal-3268662892-line-19">
    <rect x="0" y="465.1" width="976" height="24.65"/>
            </clipPath>
<clipPath id="terminal-3268662892-line-20">
    <rect x="0" y="489.5" width="976" height="24.65"/>
            </clipPath>
<clipPath id="terminal-3268662892-line-21">
    <rect x="0" y="513.9" width="976" height="24.65"/>
            </clipPath>
<clipPath id="terminal-3268662892-line-22">
    <rect x="0" y="538.3" width="976" height="24.65"/>
            </clipPath>
<clipPath id="terminal-3268662892-line-23">
    <rect x="0" y="562.7" width="976" height="24.65"/>
            </clipPath>
<clipPath id="terminal-3268662892-line-24">
    <rect x="0" y="587.1" width="976" height="24.65"/>
            </clipPath>
<clipPath id="terminal-3268662892-line-25">
    <rect x="0" y="611.5" width="976" height="24.65"/>
            </clipPath>
<clipPath id="terminal-3268662892-line-26">
    <rect x="0" y="635.9" width="976" height="24.65"/>
            </clipPath>
    </defs>

    <rect fill="#292929" stroke="rgba(255,255,255,0.35)" stroke-width="1" x="1" y="1" width="992" height="731.2" rx="8"/><text class="terminal-3268662892-title" fill="#c5c8c6" text-anchor="middle" x="496" y="27">ApprovalDemoApp</text>
            <g transform="translate(26,22)">
            <circle cx="0" cy="0" r="7" fill="#ff5f57"/>
            <circle cx="22" cy="0" r="7" fill="#febc2e"/>
            <circle cx="44" cy="0" r="7" fill="#28c840"/>
            </g>
        
    <g transform="translate(9, 41)" clip-path="url(#terminal-3268662892-clip-terminal)">
    <rect fill="#121212" x="0" y="1.5" width="976" height="24.65" shape-rendering="crispEdges"/><rect fill="#121212" x="0" y="25.9" width="24.4" height="24.65" shape-rendering="crispEdges"/><rect fill="#121212" x="24.4" y="25.9" width="134.2" height="24.65" shape-rendering="crispEdges"/><rect fill="#121212" x="158.6" y="25.9" width="475.8" height="24.65" shape-rendering="crispEdges"/><rect fill="#121212" x="634.4" y="25.9" width="317.2" height="24.65" shape-rendering="crispEdges"/><rect fill="#121212" x="951.6" y="25.9" width="24.4" height="24.65" shape-rendering="crispEdges"/><rect fill="#121212" x="0" y="50.3" width="976" height="24.65" shape-rendering="crispEdges"/><rect fill="#121212" x="0" y="74.7" width="24.4" height="24.65" shape-rendering="crispEdges"/><rect fill="#121212" x="24.4" y="74.7" width="12.2" height="24.65" shape-rendering="crispEdges"/><rect fill="#121212" x="36.6" y="74.7" width="902.8" height="24.65" shape-rendering="crispEdges"/><rect fill="#121212" x="939.4" y="74.7" width="12.2" height="24.65" shape-rendering="crispEdges"/><rect fill="#121212" x="951.6" y="74.7" width="24.4" height="24.65" shape-rendering="crispEdges"/><rect fill="#121212" x="0" y="99.1" width="24.4" height="24.65" shape-rendering="crispEdges"/><rect fill="#121212" x="24.4" y="99.1" width="12.2" height="24.65" shape-rendering="crispEdges"/><rect fill="#121212" x="36.6" y="99.1" width="902.8" height="24.65" shape-rendering="crispEdges"/><rect fill="#121212" x="939.4" y="99.1" width="12.2" height="24.65" shape-rendering="crispEdges"/><rect fill="#121212" x="951.6" y="99.1" width="24.4" height="24.65" shape-rendering="crispEdges"/><rect fill="#121212" x="0" y="123.5" width="24.4" height="24.65" shape-rendering="crispEdges"/><rect fill="#121212" x="24.4" y="123.5" width="12.2" height="24.65" shape-rendering="crispEdges"/><rect fill="#121212" x="36.6" y="123.5" width="12.2" height="24.65" shape-rendering="crispEdges"/><rect fill="#121212" x="48.8" y="123.5" width="366" height="24.65" shape-rendering="crispEdges"/><rect fill="#121212" x="414.8" y="123.5" width="512.4" height="24.65" shape-rendering="crispEdges"/><rect fill="#121212" x="927.2" y="123.5" width="12.2" height="24.65" shape-rendering="crispEdges"/><rect fill="#121212" x="939.4" y="123.5" width="12.2" height="24.65" shape-rendering="crispEdges"/><rect fill="#121212" x="951.6" y="123.5" width="24.4" height="24.65" shape-rendering="crispEdges"/><rect fill="#121212" x="0" y="147.9" width="24.4" height="24.65" shape-rendering="crispEdges"/><rect fill="#121212" x="24.4" y="147.9" width="12.2" height="24.65" shape-rendering="crispEdges"/><rect fill="#121212" x="36.6" y="147.9" width="12.2" height="24.65" shape-rendering="crispEdges"/><rect fill="#121212" x="48.8" y="147.9" width="878.4" height="24.65" shape-rendering="crispEdges"/><rect fill="#121212" x="927.2" y="147.9" width="12.2" height="24.65" shape-rendering="crispEdges"/><rect fill="#121212" x="939.4" y="147.9" width="12.2" height="24.65" shape-rendering="crispEdges"/><rect fill="#121212" x="951.6" y="147.9" width="24.4" height="24.65" shape-rendering="crispEdges"/><rect fill="#121212" x="0" y="172.3" width="24.4" height="24.65" shape-rendering="crispEdges"/><rect fill="#121212" x="24.4" y="172.3" width="12.2" height="24.65" shape-rendering="crispEdges"/><rect fill="#121212" x="36.6" y="172.3" width="12.2" height="24.65" shape-rendering="crispEdges"/><rect fill="#121212" x="48.8" y="172.3" width="524.6" height="24.65" shape-rendering="crispEdges"/><rect fill="#121212" x="573.4" y="172.3" width="353.8" height="24.65" shape-rendering="crispEdges"/><rect fill="#121212" x="927.2" y="172.3" width="12.2" height="24.65" shape-rendering="crispEdges"/><rect fill="#121212" x="939.4" y="172.3" width="12.2" height="24.65" shape-rendering="crispEdges"/><rect fill="#121212" x="951.6" y="172.3" width="24.4" height="24.65" shape-rendering="crispEdges"/><rect fill="#121212" x="0" y="196.7" width="24.4" height="24.65" shape-rendering="crispEdges"/><rect fill="#121212" x="24.4" y="196.7" width="12.2" height="24.65" shape-rendering="crispEdges"/><rect fill="#121212" x="36.6" y="196.7" width="12.2" height="24.65" shape-rendering="crispEdges"/><rect fill="#121212" x="48.8" y="196.7" width="878.4" height="24.65" shape-rendering="crispEdges"/><rect fill="#121212" x="927.2" y="196.7" width="12.2" height="24.65" shape-rendering="crispEdges"/><rect fill="#121212" x="939.4" y="196.7" width="12.2" height="24.65" shape-rendering="crispEdges"/><rect fill="#121212" x="951.6" y="196.7" width="24.4" height="24.65" shape-rendering="crispEdges"/><rect fill="#121212" x="0" y="221.1" width="24.4" height="24.65" shape-rendering="crispEdges"/><rect fill="#121212" x="24.4" y="221.1" width="12.2" height="24.65" shape-rendering="crispEdges"/><rect fill="#121212" x="36.6" y="221.1" width="12.2" height="24.65" shape-rendering="crispEdges"/><rect fill="#121212" x="48.8" y="221.1" width="366" height="24.65" shape-rendering="crispEdges"/><rect fill="#121212" x="414.8" y="221.1" width="512.4" height="24.65" shape-rendering="crispEdges"/><rect fill="#121212" x="927.2" y="221.1" width="12.2" height="24.65" shape-rendering="crispEdges"/><rect fill="#121212" x="939.4" y="221.1" width="12.2" height="24.65" shape-rendering="crispEdges"/><rect fill="#121212" x="951.6" y="221.1" width="24.4" height="24.65" shape-rendering="crispEdges"/><rect fill="#121212" x="0" y="245.5" width="24.4" height="24.65" shape-rendering="crispEdges"/><rect fill="#121212" x="24.4" y="245.5" width="12.2" height="24.65" shape-rendering="crispEdges"/><rect fill="#121212" x="36.6" y="245.5" width="12.2" height="24.65" shape-rendering="crispEdges"/><rect fill="#121212" x="48.8" y="245.5" width="878.4" height="24.65" shape-rendering="crispEdges"/><rect fill="#121212" x="927.2" y="245.5" width="12.2" height="24.65" shape-rendering="crispEdges"/><rect fill="#121212" x="939.4" y="245.5" width="12.2" height="24.65" shape-rendering="crispEdges"/><rect fill="#121212" x="951.6" y="245.5" width="24.4" height="24.65" shape-rendering="crispEdges"/><rect fill="#121212" x="0" y="269.9" width="24.4" height="24.65" shape-rendering="crispEdges"/><rect fill="#121212" x="24.4" y="269.9" width="12.2" height="24.65" shape-rendering="crispEdges"/><rect fill="#121212" x="36.6" y="269.9" width="12.2" height="24.65" shape-rendering="crispEdges"/><rect fill="#121212" x="48.8" y="269.9" width="671" height="24.65" shape-rendering="crispEdges"/><rect fill="#121212" x="719.8" y="269.9" width="207.4" height="24.65" shape-rendering="crispEdges"/><rect fill="#121212" x="927.2" y="269.9" width="12.2" height="24.65" shape-rendering="crispEdges"/><rect fill="#121212" x="939.4" y="269.9" width="12.2" height="24.65" shape-rendering="crispEdges"/><rect fill="#121212" x="951.6" y="269.9" width="24.4" height="24.65" shape-rendering="crispEdges"/><rect fill="#121212" x="0" y="294.3" width="24.4" height="24.65" shape-rendering="crispEdges"/><rect fill="#121212" x="24.4" y="294.3" width="12.2" height="24.65" shape-rendering="crispEdges"/><rect fill="#121212" x="36.6" y="294.3" width="12.2" height="24.65" shape-rendering="crispEdges"/><rect fill="#121212" x="48.8" y="294.3" width="878.4" height="24.65" shape-rendering="crispEdges"/><rect fill="#121212" x="927.2" y="294.3" width="12.2" height="24.65" shape-rendering="crispEdges"/><rect fill="#121212" x="939.4" y="294.3" width="12.2" height="24.65" shape-rendering="crispEdges"/><rect fill="#121212" x="951.6" y="294.3" width="24.4" height="24.65" shape-rendering="crispEdges"/><rect fill="#121212" x="0" y="318.7" width="24.4" height="24.65" shape-rendering="crispEdges"/><rect fill="#121212" x="24.4" y="318.7" width="12.2" height="24.65" shape-rendering="crispEdges"/><rect fill="#121212" x="36.6" y="318.7" width="12.2" height="24.65" shape-rendering="crispEdges"/><rect fill="#121212" x="48.8" y="318.7" width="671" height="24.65" shape-rendering="crispEdges"/><rect fill="#121212" x="719.8" y="318.7" width="207.4" height="24.65" shape-rendering="crispEdges"/><rect fill="#121212" x="927.2" y="318.7" width="12.2" height="24.65" shape-rendering="crispEdges"/><rect fill="#121212" x="939.4" y="318.7" width="12.2" height="24.65" shape-rendering="crispEdges"/><rect fill="#121212" x="951.6" y="318.7" width="24.4" height="24.65" shape-rendering="crispEdges"/><rect fill="#121212" x="0" y="343.1" width="24.4" height="24.65" shape-rendering="crispEdges"/><rect fill="#121212" x="24.4" y="343.1" width="12.2" height="24.65" shape-rendering="crispEdges"/><rect fill="#121212" x="36.6" y="343.1" width="12.2" height="24.65" shape-rendering="crispEdges"/><rect fill="#121212" x="48.8" y="343.1" width="878.4" height="24.65" shape-rendering="crispEdges"/><rect fill="#121212" x="927.2" y="343.1" width="12.2" height="24.65" shape-rendering="crispEdges"/><rect fill="#121212" x="939.4" y="343.1" width="12.2" height="24.65" shape-rendering="crispEdges"/><rect fill="#121212" x="951.6" y="343.1" width="24.4" height="24.65" shape-rendering="crispEdges"/><rect fill="#121212" x="0" y="367.5" width="24.4" height="24.65" shape-rendering="crispEdges"/><rect fill="#121212" x="24.4" y="367.5" width="12.2" height="24.65" shape-rendering="crispEdges"/><rect fill="#121212" x="36.6" y="367.5" width="12.2" height="24.65" shape-rendering="crispEdges"/><rect fill="#121212" x="48.8" y="367.5" width="878.4" height="24.65" shape-rendering="crispEdges"/><rect fill="#121212" x="927.2" y="367.5" width="12.2" height="24.65" shape-rendering="crispEdges"/><rect fill="#121212" x="939.4" y="367.5" width="12.2" height="24.65" shape-rendering="crispEdges"/><rect fill="#121212" x="951.6" y="367.5" width="24.4" height="24.65" shape-rendering="crispEdges"/><rect fill="#121212" x="0" y="391.9" width="24.4" height="24.65" shape-rendering="crispEdges"/><rect fill="#121212" x="24.4" y="391.9" width="12.2" height="24.65" shape-rendering="crispEdges"/><rect fill="#121212" x="36.6" y="391.9" width="12.2" height="24.65" shape-rendering="crispEdges"/><rect fill="#121212" x="48.8" y="391.9" width="878.4" height="24.65" shape-rendering="crispEdges"/><rect fill="#121212" x="927.2" y="391.9" width="12.2" height="24.65" shape-rendering="crispEdges"/><rect fill="#121212" x="939.4" y="391.9" width="12.2" height="24.65" shape-rendering="crispEdges"/><rect fill="#121212" x="951.6" y="391.9" width="24.4" height="24.65" shape-rendering="crispEdges"/><rect fill="#121212" x="0" y="416.3" width="24.4" height="24.65" shape-rendering="crispEdges"/><rect fill="#121212" x="24.4" y="416.3" width="12.2" height="24.65" shape-rendering="crispEdges"/><rect fill="#121212" x="36.6" y="416.3" width="12.2" height="24.65" shape-rendering="crispEdges"/><rect fill="#121212" x="48.8" y="416.3" width="488" height="24.65" shape-rendering="crispEdges"/><rect fill="#121212" x="536.8" y="416.3" width="390.4" height="24.65" shape-rendering="crispEdges"/><rect fill="#121212" x="927.2" y="416.3" width="12.2" height="24.65" shape-rendering="crispEdges"/><rect fill="#121212" x="939.4" y="416.3" width="12.2" height="24.65" shape-rendering="crispEdges"/><rect fill="#121212" x="951.6" y="416.3" width="24.4" height="24.65" shape-rendering="crispEdges"/><rect fill="#121212" x="0" y="440.7" width="24.4" height="24.65" shape-rendering="crispEdges"/><rect fill="#121212" x="24.4" y="440.7" width="12.2" height="24.65" shape-rendering="crispEdges"/><rect fill="#121212" x="36.6" y="440.7" width="12.2" height="24.65" shape-rendering="crispEdges"/><rect fill="#121212" x="48.8" y="440.7" width="12.2" height="24.65" shape-rendering="crispEdges"/><rect fill="#121212" x="61" y="440.7" width="195.2" height="24.65" shape-rendering="crispEdges"/><rect fill="#121212" x="256.2" y="440.7" width="658.8" height="24.65" shape-rendering="crispEdges"/><rect fill="#121212" x="915" y="440.7" width="12.2" height="24.65" shape-rendering="crispEdges"/><rect fill="#121212" x="927.2" y="440.7" width="12.2" height="24.65" shape-rendering="crispEdges"/><rect fill="#121212" x="939.4" y="440.7" width="12.2" height="24.65" shape-rendering="crispEdges"/><rect fill="#121212" x="951.6" y="440.7" width="24.4" height="24.65" shape-rendering="crispEdges"/><rect fill="#121212" x="0" y="465.1" width="24.4" height="24.65" shape-rendering="crispEdges"/><rect fill="#121212" x="24.4" y="465.1" width="12.2" height="24.65" shape-rendering="crispEdges"/><rect fill="#121212" x="36.6" y="465.1" width="12.2" height="24.65" shape-rendering="crispEdges"/><rect fill="#121212" x="48.8" y="465.1" width="12.2" height="24.65" shape-rendering="crispEdges"/><rect fill="#121212" x="61" y="465.1" width="183" height="24.65" shape-rendering="crispEdges"/><rect fill="#121212" x="244" y="465.1" width="671" height="24.65" shape-rendering="crispEdges"/><rect fill="#121212" x="915" y="465.1" width="12.2" height="24.65" shape-rendering="crispEdges"/><rect fill="#121212" x="927.2" y="465.1" width="12.2" height="24.65" shape-rendering="crispEdges"/><rect fill="#121212" x="939.4" y="465.1" width="12.2" height="24.65" shape-rendering="crispEdges"/><rect fill="#121212" x="951.6" y="465.1" width="24.4" height="24.65" shape-rendering="crispEdges"/><rect fill="#121212" x="0" y="489.5" width="24.4" height="24.65" shape-rendering="crispEdges"/><rect fill="#121212" x="24.4" y="489.5" width="12.2" height="24.65" shape-rendering="crispEdges"/><rect fill="#121212" x="36.6" y="489.5" width="12.2" height="24.65" shape-rendering="crispEdges"/><rect fill="#3b82f6" x="48.8" y="489.5" width="12.2" height="24.65" shape-rendering="crispEdges"/><rect fill="#3b82f6" x="61" y="489.5" width="512.4" height="24.65" shape-rendering="crispEdges"/><rect fill="#3b82f6" x="573.4" y="489.5" width="341.6" height="24.65" shape-rendering="crispEdges"/><rect fill="#3b82f6" x="915" y="489.5" width="12.2" height="24.65" shape-rendering="crispEdges"/><rect fill="#121212" x="927.2" y="489.5" width="12.2" height="24.65" shape-rendering="crispEdges"/><rect fill="#121212" x="939.4" y="489.5" width="12.2" height="24.65" shape-rendering="crispEdges"/><rect fill="#121212" x="951.6" y="489.5" width="24.4" height="24.65" shape-rendering="crispEdges"/><rect fill="#121212" x="0" y="513.9" width="24.4" height="24.65" shape-rendering="crispEdges"/><rect fill="#121212" x="24.4" y="513.9" width="12.2" height="24.65" shape-rendering="crispEdges"/><rect fill="#121212" x="36.6" y="513.9" width="12.2" height="24.65" shape-rendering="crispEdges"/><rect fill="#121212" x="48.8" y="513.9" width="12.2" height="24.65" shape-rendering="crispEdges"/><rect fill="#121212" x="61" y="513.9" width="451.4" height="24.65" shape-rendering="crispEdges"/><rect fill="#121212" x="512.4" y="513.9" width="402.6" height="24.65" shape-rendering="crispEdges"/><rect fill="#121212" x="915" y="513.9" width="12.2" height="24.65" shape-rendering="crispEdges"/><rect fill="#121212" x="927.2" y="513.9" width="12.2" height="24.65" shape-rendering="crispEdges"/><rect fill="#121212" x="939.4" y="513.9" width="12.2" height="24.65" shape-rendering="crispEdges"/><rect fill="#121212" x="951.6" y="513.9" width="24.4" height="24.65" shape-rendering="crispEdges"/><rect fill="#121212" x="0" y="538.3" width="24.4" height="24.65" shape-rendering="crispEdges"/><rect fill="#121212" x="24.4" y="538.3" width="12.2" height="24.65" shape-rendering="crispEdges"/><rect fill="#121212" x="36.6" y="538.3" width="12.2" height="24.65" shape-rendering="crispEdges"/><rect fill="#121212" x="48.8" y="538.3" width="878.4" height="24.65" shape-rendering="crispEdges"/><rect fill="#121212" x="927.2" y="538.3" width="12.2" height="24.65" shape-rendering="crispEdges"/><rect fill="#121212" x="939.4" y="538.3" width="12.2" height="24.65" shape-rendering="crispEdges"/><rect fill="#121212" x="951.6" y="538.3" width="24.4" height="24.65" shape-rendering="crispEdges"/><rect fill="#121212" x="0" y="562.7" width="24.4" height="24.65" shape-rendering="crispEdges"/><rect fill="#121212" x="24.4" y="562.7" width="12.2" height="24.65" shape-rendering="crispEdges"/><rect fill="#121212" x="36.6" y="562.7" width="12.2" height="24.65" shape-rendering="crispEdges"/><rect fill="#121212" x="48.8" y="562.7" width="744.2" height="24.65" shape-rendering="crispEdges"/><rect fill="#121212" x="793" y="562.7" width="134.2" height="24.65" shape-rendering="crispEdges"/><rect fill="#121212" x="927.2" y="562.7" width="12.2" height="24.65" shape-rendering="crispEdges"/><rect fill="#121212" x="939.4" y="562.7" width="12.2" height="24.65" shape-rendering="crispEdges"/><rect fill="#121212" x="951.6" y="562.7" width="24.4" height="24.65" shape-rendering="crispEdges"/><rect fill="#121212" x="0" y="587.1" width="24.4" height="24.65" shape-rendering="crispEdges"/><rect fill="#121212" x="24.4" y="587.1" width="12.2" height="24.65" shape-rendering="crispEdges"/><rect fill="#121212" x="36.6" y="587.1" width="12.2" height="24.65" shape-rendering="crispEdges"/><rect fill="#121212" x="48.8" y="587.1" width="878.4" height="24.65" shape-rendering="crispEdges"/><rect fill="#121212" x="927.2" y="587.1" width="12.2" height="24.65" shape-rendering="crispEdges"/><rect fill="#121212" x="939.4" y="587.1" width="12.2" height="24.65" shape-rendering="crispEdges"/><rect fill="#121212" x="951.6" y="587.1" width="24.4" height="24.65" shape-rendering="crispEdges"/><rect fill="#121212" x="0" y="611.5" width="24.4" height="24.65" shape-rendering="crispEdges"/><rect fill="#121212" x="24.4" y="611.5" width="12.2" height="24.65" shape-rendering="crispEdges"/><rect fill="#121212" x="36.6" y="611.5" width="902.8" height="24.65" shape-rendering="crispEdges"/><rect fill="#121212" x="939.4" y="611.5" width="12.2" height="24.65" shape-rendering="crispEdges"/><rect fill="#121212" x="951.6" y="611.5" width="24.4" height="24.65" shape-rendering="crispEdges"/><rect fill="#121212" x="0" y="635.9" width="24.4" height="24.65" shape-rendering="crispEdges"/><rect fill="#121212" x="24.4" y="635.9" width="12.2" height="24.65" shape-rendering="crispEdges"/><rect fill="#121212" x="36.6" y="635.9" width="902.8" height="24.65" shape-rendering="crispEdges"/><rect fill="#121212" x="939.4" y="635.9" width="12.2" height="24.65" shape-rendering="crispEdges"/><rect fill="#121212" x="951.6" y="635.9" width="24.4" height="24.65" shape-rendering="crispEdges"/><rect fill="#121212" x="0" y="660.3" width="24.4" height="24.65" shape-rendering="crispEdges"/><rect fill="#121212" x="24.4" y="660.3" width="927.2" height="24.65" shape-rendering="crispEdges"/><rect fill="#121212" x="951.6" y="660.3" width="24.4" height="24.65" shape-rendering="crispEdges"/>
    <g class="terminal-3268662892-matrix">
    <text class="terminal-3268662892-r1" x="976" y="20" textLength="12.2" clip-path="url(#terminal-3268662892-line-0)">
</text><text class="terminal-3268662892-r2" x="24.4" y="44.4" textLength="134.2" clip-path="url(#terminal-3268662892-line-1)">deepagents&gt;</text><text class="terminal-3268662892-r3" x="158.6" y="44.4" textLength="475.8" clip-path="url(#terminal-3268662892-line-1)">&#160;/task&#160;Research&#160;the&#160;auth&#160;implementation</text><text class="terminal-3268662892-r1" x="976" y="44.4" textLength="12.2" clip-path="url(#terminal-3268662892-line-1)">
</text><text class="terminal-3268662892-r1" x="976" y="68.8" textLength="12.2" clip-path="url(#terminal-3268662892-line-2)">
</text><text class="terminal-3268662892-r4" x="24.4" y="93.2" textLength="12.2" clip-path="url(#terminal-3268662892-line-3)">+</text><text class="terminal-3268662892-r4" x="36.6" y="93.2" textLength="902.8" clip-path="url(#terminal-3268662892-line-3)">--------------------------------------------------------------------------</text><text class="terminal-3268662892-r4" x="939.4" y="93.2" textLength="12.2" clip-path="url(#terminal-3268662892-line-3)">+</text><text class="terminal-3268662892-r1" x="976" y="93.2" textLength="12.2" clip-path="url(#terminal-3268662892-line-3)">
</text><text class="terminal-3268662892-r4" x="24.4" y="117.6" textLength="12.2" clip-path="url(#terminal-3268662892-line-4)">|</text><text class="terminal-3268662892-r4" x="939.4" y="117.6" textLength="12.2" clip-path="url(#terminal-3268662892-line-4)">|</text><text class="terminal-3268662892-r1" x="976" y="117.6" textLength="12.2" clip-path="url(#terminal-3268662892-line-4)">
</text><text class="terminal-3268662892-r4" x="24.4" y="142" textLength="12.2" clip-path="url(#terminal-3268662892-line-5)">|</text><text class="terminal-3268662892-r5" x="48.8" y="142" textLength="366" clip-path="url(#terminal-3268662892-line-5)">&gt;&gt;&gt;&#160;task&#160;Requires&#160;Approval&#160;&lt;&lt;&lt;</text><text class="terminal-3268662892-r4" x="939.4" y="142" textLength="12.2" clip-path="url(#terminal-3268662892-line-5)">|</text><text class="terminal-3268662892-r1" x="976" y="142" textLength="12.2" clip-path="url(#terminal-3268662892-line-5)">
</text><text class="terminal-3268662892-r4" x="24.4" y="166.4" textLength="12.2" clip-path="url(#terminal-3268662892-line-6)">|</text><text class="terminal-3268662892-r4" x="939.4" y="166.4" textLength="12.2" clip-path="url(#terminal-3268662892-line-6)">|</text><text class="terminal-3268662892-r1" x="976" y="166.4" textLength="12.2" clip-path="url(#terminal-3268662892-line-6)">
</text><text class="terminal-3268662892-r4" x="24.4" y="190.8" textLength="12.2" clip-path="url(#terminal-3268662892-line-7)">|</text><text class="terminal-3268662892-r6" x="48.8" y="190.8" textLength="524.6" clip-path="url(#terminal-3268662892-line-7)">Launch&#160;a&#160;subagent&#160;to&#160;research&#160;auth&#160;patterns</text><text class="terminal-3268662892-r4" x="939.4" y="190.8" textLength="12.2" clip-path="url(#terminal-3268662892-line-7)">|</text><text class="terminal-3268662892-r1" x="976" y="190.8" textLength="12.2" clip-path="url(#terminal-3268662892-line-7)">
</text><text class="terminal-3268662892-r4" x="24.4" y="215.2" textLength="12.2" clip-path="url(#terminal-3268662892-line-8)">|</text><text class="terminal-3268662892-r4" x="939.4" y="215.2" textLength="12.2" clip-path="url(#terminal-3268662892-line-8)">|</text><text class="terminal-3268662892-r1" x="976" y="215.2" textLength="12.2" clip-path="url(#terminal-3268662892-line-8)">
</text><text class="terminal-3268662892-r4" x="24.4" y="239.6" textLength="12.2" clip-path="url(#terminal-3268662892-line-9)">|</text><text class="terminal-3268662892-r7" x="48.8" y="239.6" textLength="366" clip-path="url(#terminal-3268662892-line-9)">subagent_type:&#160;general-purpose</text><text class="terminal-3268662892-r4" x="939.4" y="239.6" textLength="12.2" clip-path="url(#terminal-3268662892-line-9)">|</text><text class="terminal-3268662892-r1" x="976" y="239.6" textLength="12.2" clip-path="url(#terminal-3268662892-line-9)">
</text><text class="terminal-3268662892-r4" x="24.4" y="264" textLength="12.2" clip-path="url(#terminal-3268662892-line-10)">|</text><text class="terminal-3268662892-r4" x="939.4" y="264" textLength="12.2" clip-path="url(#terminal-3268662892-line-10)">|</text><text class="terminal-3268662892-r1" x="976" y="264" textLength="12.2" clip-path="url(#terminal-3268662892-line-10)">
</text><text class="terminal-3268662892-r4" x="24.4" y="288.4" textLength="12.2" clip-path="url(#terminal-3268662892-line-11)">|</text><text class="terminal-3268662892-r7" x="48.8" y="288.4" textLength="671" clip-path="url(#terminal-3268662892-line-11)">description:&#160;Research&#160;the&#160;authentication&#160;implementation</text><text class="terminal-3268662892-r4" x="939.4" y="288.4" textLength="12.2" clip-path="url(#terminal-3268662892-line-11)">|</text><text class="terminal-3268662892-r1" x="976" y="288.4" textLength="12.2" clip-path="url(#terminal-3268662892-line-11)">
</text><text class="terminal-3268662892-r4" x="24.4" y="312.8" textLength="12.2" clip-path="url(#terminal-3268662892-line-12)">|</text><text class="terminal-3268662892-r4" x="939.4" y="312.8" textLength="12.2" clip-path="url(#terminal-3268662892-line-12)">|</text><text class="terminal-3268662892-r1" x="976" y="312.8" textLength="12.2" clip-path="url(#terminal-3268662892-line-12)">
</text><text class="terminal-3268662892-r4" x="24.4" y="337.2" textLength="12.2" clip-path="url(#terminal-3268662892-line-13)">|</text><text class="terminal-3268662892-r7" x="48.8" y="337.2" textLength="671" clip-path="url(#terminal-3268662892-line-13)">prompt:&#160;Investigate&#160;how&#160;auth&#160;is&#160;handled&#160;in&#160;the&#160;codebase</text><text class="terminal-3268662892-r4" x="939.4" y="337.2" textLength="12.2" clip-path="url(#terminal-3268662892-line-13)">|</text><text class="terminal-3268662892-r1" x="976" y="337.2" textLength="12.2" clip-path="url(#terminal-3268662892-line-13)">
</text><text class="terminal-3268662892-r4" x="24.4" y="361.6" textLength="12.2" clip-path="url(#terminal-3268662892-line-14)">|</text><text class="terminal-3268662892-r4" x="939.4" y="361.6" textLength="12.2" clip-path="url(#terminal-3268662892-line-14)">|</text><text class="terminal-3268662892-r1" x="976" y="361.6" textLength="12.2" clip-path="url(#terminal-3268662892-line-14)">
</text><text class="terminal-3268662892-r4" x="24.4" y="386" textLength="12.2" clip-path="url(#terminal-3268662892-line-15)">|</text><text class="terminal-3268662892-r4" x="939.4" y="386" textLength="12.2" clip-path="url(#terminal-3268662892-line-15)">|</text><text class="terminal-3268662892-r1" x="976" y="386" textLength="12.2" clip-path="url(#terminal-3268662892-line-15)">
</text><text class="terminal-3268662892-r4" x="24.4" y="410.4" textLength="12.2" clip-path="url(#terminal-3268662892-line-16)">|</text><text class="terminal-3268662892-r4" x="939.4" y="410.4" textLength="12.2" clip-path="url(#terminal-3268662892-line-16)">|</text><text class="terminal-3268662892-r1" x="976" y="410.4" textLength="12.2" clip-path="url(#terminal-3268662892-line-16)">
</text><text class="terminal-3268662892-r4" x="24.4" y="434.8" textLength="12.2" clip-path="url(#terminal-3268662892-line-17)">|</text><text class="terminal-3268662892-r8" x="48.8" y="434.8" textLength="488" clip-path="url(#terminal-3268662892-line-17)">----------------------------------------</text><text class="terminal-3268662892-r4" x="939.4" y="434.8" textLength="12.2" clip-path="url(#terminal-3268662892-line-17)">|</text><text class="terminal-3268662892-r1" x="976" y="434.8" textLength="12.2" clip-path="url(#terminal-3268662892-line-17)">
</text><text class="terminal-3268662892-r4" x="24.4" y="459.2" textLength="12.2" clip-path="url(#terminal-3268662892-line-18)">|</text><text class="terminal-3268662892-r7" x="61" y="459.2" textLength="195.2" clip-path="url(#terminal-3268662892-line-18)">&#160;&#160;1.&#160;Approve&#160;(y)</text><text class="terminal-3268662892-r4" x="939.4" y="459.2" textLength="12.2" clip-path="url(#terminal-3268662892-line-18)">|</text><text class="terminal-3268662892-r1" x="976" y="459.2" textLength="12.2" clip-path="url(#terminal-3268662892-line-18)">
</text><text class="terminal-3268662892-r4" x="24.4" y="483.6" textLength="12.2" clip-path="url(#terminal-3268662892-line-19)">|</text><text class="terminal-3268662892-r7" x="61" y="483.6" textLength="183" clip-path="url(#terminal-3268662892-line-19)">&#160;&#160;2.&#160;Reject&#160;(n)</text><text class="terminal-3268662892-r4" x="939.4" y="483.6" textLength="12.2" clip-path="url(#terminal-3268662892-line-19)">|</text><text class="terminal-3268662892-r1" x="976" y="483.6" textLength="12.2" clip-path="url(#terminal-3268662892-line-19)">
</text><text class="terminal-3268662892-r4" x="24.4" y="508" textLength="12.2" clip-path="url(#terminal-3268662892-line-20)">|</text><text class="terminal-3268662892-r9" x="61" y="508" textLength="512.4" clip-path="url(#terminal-3268662892-line-20)">&gt;&#160;3.&#160;Step&#160;into&#160;(approve&#160;+&#160;interactive)&#160;(s)</text><text class="terminal-3268662892-r4" x="939.4" y="508" textLength="12.2" clip-path="url(#terminal-3268662892-line-20)">|</text><text class="terminal-3268662892-r1" x="976" y="508" textLength="12.2" clip-path="url(#terminal-3268662892-line-20)">
</text><text class="terminal-3268662892-r4" x="24.4" y="532.4" textLength="12.2" clip-path="url(#terminal-3268662892-line-21)">|</text><text class="terminal-3268662892-r7" x="61" y="532.4" textLength="451.4" clip-path="url(#terminal-3268662892-line-21)">&#160;&#160;4.&#160;Auto-approve&#160;for&#160;this&#160;thread&#160;(a)</text><text class="terminal-3268662892-r4" x="939.4" y="532.4" textLength="12.2" clip-path="url(#terminal-3268662892-line-21)">|</text><text class="terminal-3268662892-r1" x="976" y="532.4" textLength="12.2" clip-path="url(#terminal-3268662892-line-21)">
</text><text class="terminal-3268662892-r4" x="24.4" y="556.8" textLength="12.2" clip-path="url(#terminal-3268662892-line-22)">|</text><text class="terminal-3268662892-r4" x="939.4" y="556.8" textLength="12.2" clip-path="url(#terminal-3268662892-line-22)">|</text><text class="terminal-3268662892-r1" x="976" y="556.8" textLength="12.2" clip-path="url(#terminal-3268662892-line-22)">
</text><text class="terminal-3268662892-r4" x="24.4" y="581.2" textLength="12.2" clip-path="url(#terminal-3268662892-line-23)">|</text><text class="terminal-3268662892-r10" x="48.8" y="581.2" textLength="744.2" clip-path="url(#terminal-3268662892-line-23)">^/v&#160;navigate&#160;-&#160;Enter&#160;select&#160;-&#160;y/n/s/a&#160;quick&#160;keys&#160;-&#160;Esc&#160;reject</text><text class="terminal-3268662892-r4" x="939.4" y="581.2" textLength="12.2" clip-path="url(#terminal-3268662892-line-23)">|</text><text class="terminal-3268662892-r1" x="976" y="581.2" textLength="12.2" clip-path="url(#terminal-3268662892-line-23)">
</text><text class="terminal-3268662892-r4" x="24.4" y="605.6" textLength="12.2" clip-path="url(#terminal-3268662892-line-24)">|</text><text class="terminal-3268662892-r4" x="939.4" y="605.6" textLength="12.2" clip-path="url(#terminal-3268662892-line-24)">|</text><text class="terminal-3268662892-r1" x="976" y="605.6" textLength="12.2" clip-path="url(#terminal-3268662892-line-24)">
</text><text class="terminal-3268662892-r4" x="24.4" y="630" textLength="12.2" clip-path="url(#terminal-3268662892-line-25)">|</text><text class="terminal-3268662892-r4" x="939.4" y="630" textLength="12.2" clip-path="url(#terminal-3268662892-line-25)">|</text><text class="terminal-3268662892-r1" x="976" y="630" textLength="12.2" clip-path="url(#terminal-3268662892-line-25)">
</text><text class="terminal-3268662892-r4" x="24.4" y="654.4" textLength="12.2" clip-path="url(#terminal-3268662892-line-26)">+</text><text class="terminal-3268662892-r4" x="36.6" y="654.4" textLength="902.8" clip-path="url(#terminal-3268662892-line-26)">--------------------------------------------------------------------------</text><text class="terminal-3268662892-r4" x="939.4" y="654.4" textLength="12.2" clip-path="url(#terminal-3268662892-line-26)">+</text><text class="terminal-3268662892-r1" x="976" y="654.4" textLength="12.2" clip-path="url(#terminal-3268662892-line-26)">
</text>
    </g>
    </g>
</svg>
